<svg width="20" height="22" viewBox="0 0 20 22" fill="none" xmlns="http://www.w3.org/2000/svg">
<path d="M17.3901 5.90774L18.0398 5.26717C18.2122 5.09486 18.309 4.86115 18.309 4.61745C18.309 4.37376 18.2122 4.14005 18.0398 3.96773C17.8675 3.79541 17.6338 3.69861 17.3901 3.69861C17.1464 3.69861 16.9127 3.79541 16.7404 3.96773L15.4593 5.25802L12.8695 7.84776L7.09524 13.6129C6.14907 12.9886 5.00485 12.7378 3.88431 12.9091C2.76377 13.0803 1.74668 13.6614 1.03013 14.5397C0.313576 15.4181 -0.0514261 16.5312 0.0058485 17.6633C0.0631231 18.7954 0.538597 19.8659 1.34014 20.6674C2.14168 21.469 3.21222 21.9445 4.34432 22.0017C5.47642 22.059 6.58948 21.694 7.46783 20.9774C8.34617 20.2609 8.92726 19.2438 9.0985 18.1233C9.26974 17.0027 9.01894 15.8585 8.39469 14.9123L13.5101 9.78777L15.4501 11.7369C15.5354 11.8217 15.6366 11.8887 15.7479 11.9344C15.8591 11.98 15.9783 12.0032 16.0985 12.0028C16.2187 12.0024 16.3377 11.9783 16.4486 11.9319C16.5596 11.8855 16.6603 11.8177 16.745 11.7324C16.8297 11.647 16.8968 11.5459 16.9424 11.4346C16.988 11.3234 17.0113 11.2042 17.0109 11.084C17.0104 10.9637 16.9863 10.8448 16.9399 10.7338C16.8935 10.6229 16.8257 10.5222 16.7404 10.4375L14.8004 8.49748L16.0998 7.20719L16.7404 7.84776C16.8251 7.93308 16.9258 8.00088 17.0367 8.04729C17.1477 8.09369 17.2666 8.1178 17.3869 8.11822C17.5071 8.11865 17.6263 8.09538 17.7375 8.04976C17.8488 8.00414 17.9499 7.93705 18.0353 7.85233C18.1206 7.76761 18.1884 7.66691 18.2348 7.55599C18.2812 7.44507 18.3053 7.32609 18.3057 7.20585C18.3062 7.08561 18.2829 6.96646 18.2373 6.85521C18.1917 6.74396 18.1246 6.64279 18.0398 6.55747L17.3901 5.90774ZM4.57872 20.1742C4.03575 20.1742 3.50497 20.0132 3.05351 19.7115C2.60205 19.4098 2.25018 18.9811 2.04239 18.4794C1.83461 17.9778 1.78024 17.4258 1.88617 16.8933C1.9921 16.3607 2.25356 15.8716 2.6375 15.4876C3.02143 15.1037 3.5106 14.8422 4.04314 14.7363C4.57567 14.6304 5.12766 14.6847 5.6293 14.8925C6.13094 15.1003 6.55969 15.4522 6.86135 15.9037C7.16301 16.3551 7.32402 16.8859 7.32402 17.4289C7.32402 18.157 7.03478 18.8552 6.51994 19.3701C6.0051 19.8849 5.30682 20.1742 4.57872 20.1742Z" fill="#A4A4A4"/>
<line x1="1.09052" y1="1.97006" x2="18.0905" y2="19.9701" stroke="#A4A4A4" stroke-width="3"/>
</svg>
