<svg width="303" height="17" viewBox="0 0 303 17" fill="none" xmlns="http://www.w3.org/2000/svg">
<path d="M113.41 12.0788C112.683 12.0788 112.011 11.91 111.396 11.5725C110.789 11.2275 110.305 10.7512 109.945 10.1437C109.593 9.52875 109.416 8.83875 109.416 8.07375C109.416 7.30875 109.593 6.6225 109.945 6.015C110.305 5.4075 110.789 4.935 111.396 4.5975C112.011 4.2525 112.683 4.08 113.41 4.08C114.145 4.08 114.816 4.2525 115.424 4.5975C116.039 4.935 116.523 5.4075 116.875 6.015C117.228 6.6225 117.404 7.30875 117.404 8.07375C117.404 8.83875 117.228 9.52875 116.875 10.1437C116.523 10.7512 116.039 11.2275 115.424 11.5725C114.816 11.91 114.145 12.0788 113.41 12.0788ZM113.41 10.965C113.928 10.965 114.389 10.8487 114.794 10.6162C115.199 10.3762 115.514 10.0387 115.739 9.60375C115.971 9.16125 116.088 8.65125 116.088 8.07375C116.088 7.49625 115.971 6.99 115.739 6.555C115.514 6.12 115.199 5.78625 114.794 5.55375C114.389 5.32125 113.928 5.205 113.41 5.205C112.893 5.205 112.431 5.32125 112.026 5.55375C111.621 5.78625 111.303 6.12 111.07 6.555C110.845 6.99 110.733 7.49625 110.733 8.07375C110.733 8.65125 110.845 9.16125 111.07 9.60375C111.303 10.0387 111.621 10.3762 112.026 10.6162C112.431 10.8487 112.893 10.965 113.41 10.965ZM119.948 6.70125C120.136 6.38625 120.383 6.1425 120.691 5.97C121.006 5.79 121.377 5.7 121.805 5.7V7.0275H121.478C120.976 7.0275 120.593 7.155 120.331 7.41C120.076 7.665 119.948 8.1075 119.948 8.7375V12H118.666V5.80125H119.948V6.70125ZM128.156 12.1013C127.668 12.1013 127.23 12.015 126.84 11.8425C126.457 11.6625 126.153 11.4225 125.928 11.1225C125.703 10.815 125.583 10.4737 125.568 10.0987H126.896C126.918 10.3612 127.042 10.5825 127.267 10.7625C127.5 10.935 127.788 11.0212 128.133 11.0212C128.493 11.0212 128.771 10.9537 128.966 10.8187C129.168 10.6762 129.27 10.4962 129.27 10.2787C129.27 10.0462 129.157 9.87375 128.932 9.76125C128.715 9.64875 128.366 9.525 127.886 9.39C127.421 9.2625 127.042 9.13875 126.75 9.01875C126.457 8.89875 126.202 8.715 125.985 8.4675C125.775 8.22 125.67 7.89375 125.67 7.48875C125.67 7.15875 125.767 6.85875 125.962 6.58875C126.157 6.31125 126.435 6.09375 126.795 5.93625C127.162 5.77875 127.582 5.7 128.055 5.7C128.76 5.7 129.326 5.88 129.753 6.24C130.188 6.5925 130.421 7.07625 130.451 7.69125H129.168C129.146 7.41375 129.033 7.1925 128.831 7.0275C128.628 6.8625 128.355 6.78 128.01 6.78C127.672 6.78 127.413 6.84375 127.233 6.97125C127.053 7.09875 126.963 7.2675 126.963 7.4775C126.963 7.6425 127.023 7.78125 127.143 7.89375C127.263 8.00625 127.41 8.09625 127.582 8.16375C127.755 8.22375 128.01 8.3025 128.347 8.4C128.797 8.52 129.165 8.64375 129.45 8.77125C129.742 8.89125 129.993 9.07125 130.203 9.31125C130.413 9.55125 130.522 9.87 130.53 10.2675C130.53 10.62 130.432 10.935 130.237 11.2125C130.042 11.49 129.765 11.7075 129.405 11.865C129.052 12.0225 128.636 12.1013 128.156 12.1013ZM132.568 4.98C132.335 4.98 132.14 4.90125 131.983 4.74375C131.825 4.58625 131.747 4.39125 131.747 4.15875C131.747 3.92625 131.825 3.73125 131.983 3.57375C132.14 3.41625 132.335 3.3375 132.568 3.3375C132.793 3.3375 132.984 3.41625 133.142 3.57375C133.299 3.73125 133.378 3.92625 133.378 4.15875C133.378 4.39125 133.299 4.58625 133.142 4.74375C132.984 4.90125 132.793 4.98 132.568 4.98ZM133.198 5.80125V12H131.915V5.80125H133.198ZM137.379 5.7C137.859 5.7 138.283 5.7975 138.65 5.9925C139.025 6.18 139.318 6.41625 139.528 6.70125V5.80125H140.822V12.1013C140.822 12.6713 140.702 13.1775 140.462 13.62C140.222 14.07 139.873 14.4225 139.415 14.6775C138.965 14.9325 138.425 15.06 137.795 15.06C136.955 15.06 136.258 14.8613 135.703 14.4638C135.148 14.0738 134.833 13.5413 134.758 12.8663H136.029C136.127 13.1888 136.333 13.4475 136.648 13.6425C136.97 13.845 137.353 13.9463 137.795 13.9463C138.313 13.9463 138.729 13.7888 139.044 13.4738C139.367 13.1588 139.528 12.7013 139.528 12.1013V11.0662C139.31 11.3587 139.014 11.6062 138.639 11.8087C138.272 12.0038 137.852 12.1013 137.379 12.1013C136.839 12.1013 136.344 11.9663 135.894 11.6962C135.452 11.4187 135.099 11.0362 134.837 10.5487C134.582 10.0537 134.454 9.495 134.454 8.8725C134.454 8.25 134.582 7.69875 134.837 7.21875C135.099 6.73875 135.452 6.3675 135.894 6.105C136.344 5.835 136.839 5.7 137.379 5.7ZM139.528 8.895C139.528 8.4675 139.438 8.09625 139.258 7.78125C139.085 7.46625 138.857 7.22625 138.572 7.06125C138.287 6.89625 137.979 6.81375 137.649 6.81375C137.319 6.81375 137.012 6.89625 136.727 7.06125C136.442 7.21875 136.209 7.455 136.029 7.77C135.857 8.0775 135.77 8.445 135.77 8.8725C135.77 9.3 135.857 9.675 136.029 9.9975C136.209 10.32 136.442 10.5675 136.727 10.74C137.019 10.905 137.327 10.9875 137.649 10.9875C137.979 10.9875 138.287 10.905 138.572 10.74C138.857 10.575 139.085 10.335 139.258 10.02C139.438 9.6975 139.528 9.3225 139.528 8.895ZM145.634 5.7C146.121 5.7 146.556 5.80125 146.939 6.00375C147.329 6.20625 147.632 6.50625 147.85 6.90375C148.067 7.30125 148.176 7.78125 148.176 8.34375V12H146.905V8.535C146.905 7.98 146.766 7.55625 146.489 7.26375C146.211 6.96375 145.832 6.81375 145.352 6.81375C144.872 6.81375 144.49 6.96375 144.205 7.26375C143.927 7.55625 143.789 7.98 143.789 8.535V12H142.506V5.80125H143.789V6.51C143.999 6.255 144.265 6.05625 144.587 5.91375C144.917 5.77125 145.266 5.7 145.634 5.7ZM158.348 5.80125V12H157.066V11.2687C156.863 11.5237 156.597 11.7262 156.267 11.8762C155.944 12.0187 155.599 12.09 155.232 12.09C154.744 12.09 154.306 11.9887 153.916 11.7862C153.533 11.5837 153.229 11.2837 153.004 10.8862C152.787 10.4887 152.678 10.0087 152.678 9.44625V5.80125H153.949V9.255C153.949 9.81 154.088 10.2375 154.366 10.5375C154.643 10.83 155.022 10.9762 155.502 10.9762C155.982 10.9762 156.361 10.83 156.638 10.5375C156.923 10.2375 157.066 9.81 157.066 9.255V5.80125H158.348ZM161.323 6.7125C161.54 6.4275 161.837 6.1875 162.212 5.9925C162.587 5.7975 163.01 5.7 163.483 5.7C164.023 5.7 164.514 5.835 164.957 6.105C165.407 6.3675 165.759 6.73875 166.014 7.21875C166.269 7.69875 166.397 8.25 166.397 8.8725C166.397 9.495 166.269 10.0537 166.014 10.5487C165.759 11.0362 165.407 11.4187 164.957 11.6962C164.514 11.9663 164.023 12.1013 163.483 12.1013C163.01 12.1013 162.59 12.0075 162.223 11.82C161.855 11.625 161.555 11.385 161.323 11.1V14.9475H160.04V5.80125H161.323V6.7125ZM165.092 8.8725C165.092 8.445 165.002 8.0775 164.822 7.77C164.649 7.455 164.417 7.21875 164.124 7.06125C163.839 6.89625 163.532 6.81375 163.202 6.81375C162.879 6.81375 162.572 6.89625 162.279 7.06125C161.994 7.22625 161.762 7.46625 161.582 7.78125C161.409 8.09625 161.323 8.4675 161.323 8.895C161.323 9.3225 161.409 9.6975 161.582 10.02C161.762 10.335 161.994 10.575 162.279 10.74C162.572 10.905 162.879 10.9875 163.202 10.9875C163.532 10.9875 163.839 10.905 164.124 10.74C164.417 10.5675 164.649 10.32 164.822 9.9975C165.002 9.675 165.092 9.3 165.092 8.8725ZM178.912 5.80125L176.988 12H175.638L174.39 7.42125L173.141 12H171.791L169.856 5.80125H171.161L172.455 10.785L173.771 5.80125H175.11L176.37 10.7625L177.652 5.80125H178.912ZM180.523 4.98C180.291 4.98 180.096 4.90125 179.938 4.74375C179.781 4.58625 179.702 4.39125 179.702 4.15875C179.702 3.92625 179.781 3.73125 179.938 3.57375C180.096 3.41625 180.291 3.3375 180.523 3.3375C180.748 3.3375 180.939 3.41625 181.097 3.57375C181.254 3.73125 181.333 3.92625 181.333 4.15875C181.333 4.39125 181.254 4.58625 181.097 4.74375C180.939 4.90125 180.748 4.98 180.523 4.98ZM181.153 5.80125V12H179.871V5.80125H181.153ZM184.333 6.8475V10.2787C184.333 10.5112 184.386 10.68 184.491 10.785C184.603 10.8825 184.791 10.9312 185.053 10.9312H185.841V12H184.828C184.251 12 183.808 11.865 183.501 11.595C183.193 11.325 183.039 10.8862 183.039 10.2787V6.8475H182.308V5.80125H183.039V4.26H184.333V5.80125H185.841V6.8475H184.333ZM190.229 5.7C190.701 5.7 191.121 5.80125 191.489 6.00375C191.864 6.20625 192.156 6.50625 192.366 6.90375C192.584 7.30125 192.693 7.78125 192.693 8.34375V12H191.421V8.535C191.421 7.98 191.283 7.55625 191.005 7.26375C190.728 6.96375 190.349 6.81375 189.869 6.81375C189.389 6.81375 189.006 6.96375 188.721 7.26375C188.444 7.55625 188.305 7.98 188.305 8.535V12H187.023V3.675H188.305V6.52125C188.523 6.25875 188.796 6.05625 189.126 5.91375C189.464 5.77125 189.831 5.7 190.229 5.7Z" fill="#B6B6B6"/>
<path d="M0 8.5L98 8V9L0 8.5Z" fill="url(#paint0_linear_2_249)" fill-opacity="0.75"/>
<path d="M205 8L303 8.5L205 9V8Z" fill="url(#paint1_linear_2_249)" fill-opacity="0.75"/>
<defs>
<linearGradient id="paint0_linear_2_249" x1="98" y1="9.00019" x2="5.5" y2="9.00013" gradientUnits="userSpaceOnUse">
<stop stop-color="#D9D9D9"/>
<stop offset="1" stop-color="#D9D9D9" stop-opacity="0"/>
</linearGradient>
<linearGradient id="paint1_linear_2_249" x1="205" y1="9.00005" x2="308.5" y2="7.99999" gradientUnits="userSpaceOnUse">
<stop stop-color="#D9D9D9"/>
<stop offset="1" stop-color="#D9D9D9" stop-opacity="0"/>
</linearGradient>
</defs>
</svg>
